<svg xmlns="http://www.w3.org/2000/svg" viewBox="0 0 98.21 55.91"><defs><style>.cls-1{fill:#fff;stroke:#605a5a;stroke-miterlimit:10;stroke-width:0.92px;}</style></defs><title>svg-whale</title><g id="圖層_2" data-name="圖層 2"><g id="圖層_1-2" data-name="圖層 1"><g id="圖層_2-2" data-name="圖層 2"><g id="圖層_1-2-2" data-name="圖層 1-2"><path class="cls-1" d="M77.36,44.54a.62.62,0,0,1,.62-.62h1.36a.62.62,0,0,1,.62.62.61.61,0,0,1-.61.61H78a.61.61,0,0,1-.62-.6h0ZM53.85,54.26A28.26,28.26,0,0,0,58,52.71h4.68a.61.61,0,0,0,.62-.6h0a.62.62,0,0,0-.62-.62H60.44a33.31,33.31,0,0,0,3.82-2.56h5.61a.61.61,0,0,0,.62-.6h0a.62.62,0,0,0-.62-.62H65.81a36.82,36.82,0,0,0,2.7-2.56H75a.61.61,0,0,0,.62-.6h0A.62.62,0,0,0,75,44H69.6c.72-.81,1.43-1.66,2.13-2.55h4.83a.62.62,0,0,0,0-1.23h-3.9c.6-.82,1.2-1.67,1.78-2.55h9.13a.62.62,0,0,0,0-1.23H75.28a24.18,24.18,0,0,1,2.19-2.55h1.78a.62.62,0,0,0,0-1.23H78.8a22.71,22.71,0,0,1,3.68-2.55h4.89a.62.62,0,0,0,0-1.23H85.14a24.58,24.58,0,0,1,7.51-1.68c-.09.56-.18,1.13-.3,1.68H90a.62.62,0,0,0,0,1.23h2c-.21.87-.46,1.71-.75,2.55H86.7a.62.62,0,0,0,0,1.23h4.19c-.37.85-.74,1.77-1.14,2.55H86.68a.62.62,0,0,0,0,1.23h2.43a24.11,24.11,0,0,1-1.56,2.56H79.87a.62.62,0,0,0,0,1.23h6.82A31.19,31.19,0,0,1,84.56,44h-2.7a.62.62,0,0,0-.62.62.61.61,0,0,0,.61.61h1.52a31.3,31.3,0,0,1-3,2.56H73.17a.62.62,0,0,0-.62.62.61.61,0,0,0,.61.61h5.52a32.07,32.07,0,0,1-4.6,2.56h-8a.62.62,0,0,0-.62.62.61.61,0,0,0,.61.61h4.8a31.67,31.67,0,0,1-9.8,1.51Zm-16.75,0H35.79a19.45,19.45,0,0,1,.14-2h0c.53-4.23,2.71-7.24,9.2-8.43a.62.62,0,0,0,.5-.71.63.63,0,0,0-.72-.5c-7,1.22-9.33,4.71-10.06,8.59A32,32,0,0,1,16.58,22.35V18.76h0a.61.61,0,0,0-.6-.5h0C3.22,18.09,1.79,16.32,1.69,11c1.55,0,3-.07,4.34-.12,4.42-.17,7.91-.29,9.61,1.34.92.92,1.41,2.42,1.41,4.6h0a.61.61,0,0,0,.49.58h.12a.61.61,0,0,0,.62-.6h0c0-2.19.46-3.68,1.4-4.6,1.71-1.64,5.2-1.51,9.62-1.34,1.32,0,2.76.11,4.34.12,0,5.39-1.59,7.14-14.42,7.29h0a.61.61,0,0,0-.6.5h0a.4.4,0,0,0,0,.1h0c0,4.11,3.27,4.11,4.83,4.11H93a27.39,27.39,0,0,1-.18,2.9C90.16,26,80,27,73.67,36.59h0l-.06.09c-7.25,11-15.92,16.8-26.5,17.49a8.52,8.52,0,0,0,2.14-1.53c2.1-2.07,3.12-5.33,3.12-10a.62.62,0,1,0-1.23,0c0,4.3-.92,7.27-2.76,9.1-2.65,2.6-7,2.54-11.25,2.48ZM88.46,41c.46-.67.92-1.37,1.31-2.08a4.15,4.15,0,0,0,8-1.63.62.62,0,0,0-1.23,0,2.93,2.93,0,1,1-5.85,0h0a33.36,33.36,0,0,0,1.62-3.76.52.52,0,0,0,.07-.21,33,33,0,0,0,1.56-6.63.6.6,0,0,0,0-.17h0a33.14,33.14,0,0,0,.27-4.09.61.61,0,0,0-.61-.61H58V20.61a.62.62,0,0,0-1.22,0v1.16H23.4c-1.84,0-3.33-.19-3.57-2.29,12.34-.17,15-1.84,15-9.09a.62.62,0,0,0-.62-.62c-1.75,0-3.36-.06-4.92-.12-4.9-.18-8.43-.32-10.51,1.68a5,5,0,0,0-1.17,1.78,5.13,5.13,0,0,0-1.16-1.78C14.41,9.33,10.88,9.49,6,9.65c-1.56.06-3.17.12-4.92.12a.62.62,0,0,0-.62.59c0,7.15,2.76,8.91,14.88,9.09v2.9a33.23,33.23,0,0,0,3.58,15,2.93,2.93,0,1,1-5.85-.06.62.62,0,1,0-1.22,0,2.94,2.94,0,1,1-5.86,0,.62.62,0,1,0-1.22,0,4.15,4.15,0,0,0,7.67,2.16,4.15,4.15,0,0,0,7.36-.5,33.59,33.59,0,0,0,3.34,4.77,2.93,2.93,0,1,1-5.85-.11h0a.61.61,0,0,0-.61-.61h0a.6.6,0,0,0-.61.59h0a2.94,2.94,0,1,1-5.86,0,.61.61,0,0,0-.53-.64h0a.6.6,0,0,0-.61.59h0a4.15,4.15,0,0,0,7.61,2.17,4.15,4.15,0,0,0,7.5-.92,33.14,33.14,0,0,0,10.48,7.6,22.49,22.49,0,0,0-.14,2.46.62.62,0,0,0,.61.61h4a28.37,28.37,0,0,0,4.73-.32c.92.12,1.84.21,2.76.26h.18c.56,0,1.13.06,1.7.06H61.07a33,33,0,0,0,13.28-2.76.61.61,0,0,0,.25-.11,33.37,33.37,0,0,0,6.31-3.68.77.77,0,0,0,.22-.17,34.49,34.49,0,0,0,4-3.68.56.56,0,0,0,.21-.23c0-.06.1-.1.15-.15a4.15,4.15,0,0,0,8.16-1.1.62.62,0,0,0-1.23,0,2.93,2.93,0,1,1-5.85,0,.63.63,0,0,0,0-.13c.6-.72,1.17-1.47,1.7-2.25a.63.63,0,0,0,.17-.24Zm-4.24-7.79a.62.62,0,0,1-.62.62H82.12a.62.62,0,0,1,0-1.23h1.45a.62.62,0,0,1,.62.62ZM50.95,11.59a3.53,3.53,0,0,1,6.44-2,3.53,3.53,0,0,1,6.44,2,.61.61,0,0,1-.6.62h0a.62.62,0,0,1-.62-.62,2.3,2.3,0,1,0-4.6,0,.38.38,0,0,1,0,.1.31.31,0,0,1,0,.09v1.1a.62.62,0,1,1-1.22,0v-1.1a.31.31,0,0,1,0-.09.38.38,0,0,1,0-.1,2.26,2.26,0,0,0-.27-1.07,2.3,2.3,0,0,0-4.34,1.07.62.62,0,0,1-1.23,0h0ZM66.21,31.46a.68.68,0,1,1-.68.68h0A.68.68,0,0,1,66.21,31.46Zm0,2.6a1.91,1.91,0,1,0-1.91-1.91,1.91,1.91,0,0,0,1.91,1.91ZM58,15.57V18a.62.62,0,1,1-1.22,0V15.57a.62.62,0,0,1,1.22,0ZM90.42,3.36A4.39,4.39,0,0,0,92,4.9a4.45,4.45,0,0,0-1.54,1.53A4.42,4.42,0,0,0,88.9,4.9,4.36,4.36,0,0,0,90.42,3.36ZM86.67,5.51h0a3.16,3.16,0,0,1,3.14,3.15.62.62,0,0,0,1.22,0,3.16,3.16,0,0,1,3.14-3.15h0a.61.61,0,0,0,.62-.6h0V4.78a.62.62,0,0,0-.22-.34.58.58,0,0,0-.39-.15h0A3.14,3.14,0,0,1,91,1.15h0a.62.62,0,1,0-1.22,0,3.14,3.14,0,0,1-3.14,3.13h0a.64.64,0,0,0-.6.49.63.63,0,0,0,.51.73h.08ZM3.32,27.78a3.15,3.15,0,0,0,.58-.58,3.1,3.1,0,0,0,.57.58,3.1,3.1,0,0,0-.57.58A3.15,3.15,0,0,0,3.32,27.78Zm3,.62h0a.62.62,0,0,0,.62-.62h0a.52.52,0,0,0,0-.12.65.65,0,0,0-.22-.37.61.61,0,0,0-.4-.14h0a1.79,1.79,0,0,1-1.78-1.77.62.62,0,1,0-1.22,0,1.79,1.79,0,0,1-1.78,1.78h0a.57.57,0,0,0-.39.13.61.61,0,0,0-.21.35.54.54,0,0,0,0,.12.62.62,0,0,0,.62.62h0A1.79,1.79,0,0,1,3.3,30.15a.62.62,0,1,0,1.22,0A1.79,1.79,0,0,1,6.3,28.38Z"/></g></g></g></g></svg>