<svg xmlns="http://www.w3.org/2000/svg" width="405" height="219" viewBox="0 0 405 219"><title>Shape 1</title><path d="M403.636 20.574c-1.455 2.013-5.261 5.703-7.836 8.498-2.574 2.796-4.141 3.914-6.268 7.157s-3.918 4.528-6.492 7.156c-2.575 2.628-7.724 8.106-9.403 10.063-1.679 1.957-3.134 4.137-4.925 6.262s-8.954 7.827-8.954 7.827-1.847.671-1.344 1.118c5.141 4.567 9.403 9.505 11.194 15.878 1.791 6.374-1.344 11.182-1.344 11.182l-8.506 8.722.223.671.224 1.118.672 1.565s1.231 2.795 2.015 5.367c.783 2.572 1.847 5.703 2.238 9.84.392 4.138 1.232 7.604 1.343 10.735.112 3.131 1.12 9.336 1.344 10.287.224.95.28 1.565.447 2.013.168.447.336 1.285.448 1.789.112.503 1.343 2.404 2.015 4.249.672 1.845.224 4.472.224 4.472s-.168 2.069-.224 2.684c-.056.615-.168 1.062-.448 1.565-.28.504-.559 1.789-1.119 2.46-.56.671-1.119 2.348-1.343 2.908-.224.559-.728.894-.896 1.118-.168.224-.783.279-1.119.447-.336.168-1.231.391-1.791.671-.56.28-2.519 1.118-3.358 1.342-.84.224-4.142 1.341-8.059 1.789-3.918.447-12.089 0-16.791-.895-4.701-.894-8.171-1.789-13.879-3.354-5.709-1.565-13.88-5.815-13.88-5.815s-.56.727-1.791 2.46c-1.232 1.734-3.358 3.243-4.254 4.473-.895 1.23-3.806 5.814-3.806 5.814s-.559 1.007-.671 1.119c-.112.112-.112.67-.224 1.118-.112.447.056.782 0 1.118-.056.336.056.559 0 .894-.056.336 0 .448 0 .448l-.895.447c-.448.224-.504.782-.896 2.46s-1.343 3.578-1.343 3.578l.224.671.895.671 2.015.895v1.565l1.791 1.118s.112 5.591-1.791 10.735c-1.903 5.143-6.044 6.261-6.044 6.261s-.84-.168-1.791-.671c-.952-.503-6.045-.28-6.269-.671-.224-.391-.783-.503-1.119-.894-.336-.391 0-.503 0-.895 0-.391.056-.447-.896-1.118-.951-.671-.727-2.18-.895-2.46l-.895-.223c-.448-.112-.672-.448-.672-.448s-.84-.223-1.343-.447c-.504-.223-.392-.336-.672-.671s-.336.056-.672 0c-.335-.056-1.063.28-1.567.224-.503-.056-1.511-.224-2.462-.671-.952-.447-1.287-1.063-1.343-1.789-.056-.727 1.063-2.069 2.014-2.684.952-.615 1.847-.224 2.463.448.616.67 1.455 1.956 1.791 1.789.336-.168.28-.112.448-.671.168-.559.112-.448.224-1.118.111-.671.223-.616.223-.895 0-.28.168-1.007.224-1.342.056-.335-.168-.168-.447-.671-.28-.503-.28-.224-.448-.447-.168-.223-.672-.224-1.567-.224-.896.001-1.567-.447-1.567-.447l-.896-.894s-.504.223-.671.223c-.168 0-.616.279-1.12.447-.503.168-.895 0-.895 0s-.224.28-.448.448c-.224.167-.336.391-.672.671-.335.279-.727.167-1.343.223-.615.056-1.119.95-2.462 2.013-1.344 1.062-3.358 2.907-3.358 2.907l-1.12 1.342-1.791 2.46s5.205 4.472 6.716 6.038c1.511 1.566 1.12 3.075.672 4.473-.448 1.398-1.399 1.9-5.821 2.236-4.421.336-7.387-2.236-7.387-2.236l-1.12-.224s-.559.223-.671.224c-.112 0-2.239-.671-2.239-.671s-6.212-3.635-11.193-6.933-4.254-6.261-4.254-6.261h-.895s-.616.614-.672.894c-.056.28-.56.95-.672 1.118-.111.168-.559 2.124-1.119 4.249-.56 2.125-2.015 4.92-2.015 4.92l.448.447.224.895v.894s-.336.336-.672.448l-.671.223s-.56.727-.896 1.118c-.336.392-.224.448-.224.448s-.056.782 0 1.118c.056.336.224.671.224.671s.168.726.224.894c.056.168.056.615-.895 2.46-.952 1.846-3.135 1.342-3.135 1.342s-3.637-2.125-4.029-6.038c-.392-3.913 4.701-5.591 4.701-5.591l-.224-4.473-1.567-3.13c-.336-.671-.448-2.907-.448-2.907l-1.119.223-1.791 1.342s-1.791 4.696-2.686 7.38c-.896 2.684-2.687 1.565-2.687 1.565s-1.007 2.124-2.91 4.249c-1.903 2.125-4.478.224-4.478.224s-3.022 1.789-4.701 2.46c-1.679.671-3.694-1.231-6.044-3.578-2.351-2.348-1.791-6.262-1.791-6.262s-1.567-.783-3.806-2.684c-2.239-1.9-.672-3.578-.672-3.578s-2.462-4.361-2.462-6.485c0-2.124 3.47-4.25 3.582-4.92.112-.671-.448-1.231-.896-2.013-.447-.782-.559-1.007-.895-1.565-.336-.559-.896-1.789-.896-1.789s-1.399-3.187-1.791-3.802c-.391-.615-.168-.336-.447-.895-.28-.558-.28-.671-.448-.894-.168-.223-.112-.28.224-.895.336-.614-.224-2.683-.224-2.683s1.399-2.572 1.567-2.908c.168-.335.672-.447.672-.447l1.343-.223 2.462-3.579 2.015-2.46s-4.197-6.597-6.492-10.063-4.701-6.933-4.701-6.933-3.246-4.193-4.03-4.696c-.783-.503-1.343.671-1.343.671s3.134 10.51 4.029 19.68c.896 9.169-3.581 21.244-8.059 30.19-4.477 8.947-17.462 15.878-17.462 15.878s0 .67-1.343 1.789c-1.343 1.119-9.85 2.684-9.85 2.684s-9.626 8.944-31.118 6.709c-21.491-2.236-32.013-21.469-32.013-21.469l-46.565.671S0 195.007 0 156.767C0 118.526 34.476 114.5 34.476 114.5c5.074-.671 18.581 2.907 18.581 2.907s.97-.82 1.119-1.118c.15-.298.448-.671.672-1.342.224-.67.298-.671.672-1.118.373-.447.447-.298.895-.671.448-.372.672-.223 1.343-.447.672-.223.597-.596 1.12-1.118.522-.522 4.328-2.535 5.372-2.907 1.045-.372 3.06-2.311 3.582-2.684.523-.372.747-.075 1.567 0 .821.075 3.732-.969 6.269-1.342 2.537-.372 3.582.671 3.582.671l2.91 2.013s1.343.745 2.015.671c.671-.074.97-.82 1.567-1.566.597-.745 2.238-3.429 2.686-3.354.448.075.97-.075 1.343 0 .374.075.672.372 1.344.671.671.298 1.417.819 2.015 1.118.596.299.522.372 1.119.447.597.075 1.268-.075 1.567 0 .298.075.522.671.672.895.149.224.223.745.223 1.342 0 .596.075.894 0 1.118-.074.224.448.223.448.223s.672-.149 1.791-.894c1.119-.745 9.179-4.398 10.746-5.144 1.567-.745 2.612-.224 4.477.224 1.866.448 6.119 0 8.955-.447 2.836-.447 11.641 0 11.641 0s.075-1.939.224-2.684c.149-.745.075-2.087.224-3.131.149-1.043-.075-2.609 0-3.354.075-.745.224-1.715.671-3.131.448-1.416 1.344-5.218 1.344-6.933 0-1.714-.224-2.907-1.12-6.709-.895-3.801-.074-12.598 0-16.101.075-3.504.523-13.642.896-15.207.373-1.566.895-1.939 1.343-2.908.448-.968.522-.82.672-1.341.149-.522 1.343-3.057 2.014-4.026.672-.969.299-.746.448-1.342.15-.596.224-.671.448-1.565.224-.894.224-.746.448-1.118.224-.373.597-.597 1.119-1.118l1.119-1.119c.523-.521.448-.596.896-1.341.448-.746.672-.746 1.343-1.342.672-.596 1.567-1.79 4.03-3.131 2.462-1.342 8.731-4.473 8.731-4.473l-.224-.671-.672-1.342s-.075-.074-.671-.447c-.598-.372-.224-.373-.224-.894 0-.522-.224-1.566-.224-1.566L207.974 0l.896.224 1.343 1.118.672 1.118.447.447s.672.149 1.567.448c.896.298 1.269.447 1.567.447.299 0 1.568.223 1.791.223h2.015c.299.001.896.224.896.224l.671.671 1.12 1.342 4.701 4.696 7.611 8.051s4.478-2.386 8.06-2.013c3.582.373 7.387 4.249 7.387 4.249l15.224 13.642 1.119.447s1.567 0 5.597-.671c4.029-.67 6.044-.447 6.044-.447s4.142 1.229 8.283 3.354c4.142 2.125 9.925 6.784 13.656 10.064 3.731 3.28 8.731 9.616 8.731 9.616s4.925-12.822 6.268-15.207c1.344-2.385 2.538-4.398 5.821-2.683 3.283 1.714 10.447 1.341 13.656 1.341 3.209.001 5.746 1.565 7.835 3.802 2.09 2.237 9.179 4.92 9.179 4.92s.112.112 1.119-.224c1.008-.335 10.858-4.137 14.552-6.485 3.694-2.348 11.529-7.324 14.328-8.945 2.798-1.621 23.002-15.375 24.177-15.878 1.176-.503.784.67-.671 2.683zM147.977 200.823s.523.82.896.447c.373-.373 3.433-3.429 4.925-5.591a71.797 71.797 0 0 0 2.463-3.801l-17.238 1.341zm-5.596 2.46v-2.684s-2.463-2.46-4.03-3.801c-1.567-1.342-4.477-3.355-4.477-3.355l-3.134.671 10.969 9.392zm-21.268-12.076l-2.239 1.789h3.806l.672-.224zm-.448 3.131l-2.91.223-5.597.895-1.343 1.118s.002 0 4.478 4.025c4.477 4.026 17.088 8.647 17.685 8.498.597-.149 5.448-1.267 6.045-1.565.597-.298 1.343-.895 1.343-.895l-14.776-12.299zm6.269-6.709h-.896l-.448.67v.448l.448.671v.894l2.687 2.236 3.358-.447zm1.567-3.131l9.178 7.38 19.253-1.342s.373-.299 2.463-4.249c2.089-3.951 4.552-12.971 4.701-14.313.149-1.341-1.418-.895-3.806-.671-2.388.224-6.94.745-10.074 1.566-3.134.82-5.522 2.981-7.835 3.13-2.314.15-3.358-1.491-4.702-3.354-1.343-1.863-2.014-2.236-2.014-2.236l-1.567.223c-1.194 5.218-5.224 11.331-6.045 12.3-.821.97.448 1.566.448 1.566zm.448-45.622l.671.671 5.821-2.46zm17.685-7.156l-5.597 2.684c-.615.671 5.597-1.566 5.597-1.566s.56-.28.672-.671c.112-.391-.672-.447-.672-.447zm2.463 4.026l-.224-.671-14.552 6.038-.223.671-.448.447c-.28.279-.448.671-.448.671s.056 0 .224.223c.168.224.168.224.448.224s.671-.224.671-.224l14.552-6.261zm4.701-2.684c-.168-.112-2.463.894-2.463.894l.448 1.342c.56-.167.896-.223.896-.223s.615-.168.671-.448c.056-.279.224-.894.224-.894s.392-.559.224-.671zm5.149 10.063c-.448-1.062-.56-1.062-.672-1.789-.112-.727.168-1.118 0-1.565-.168-.448-.223-.838-.223-1.342v-2.013l-5.149 2.46s.223 1.51.223 2.013c0 .503 0 .28.224.447.224.168.728-.223.896.224.168.447.392.28.447.895.056.614.224.894.224.894s.056.224.672.224h1.343s.504 0 .896.223c.391.224.783.56.895.224.112-.336.672.168.224-.895zm-3.582 1.342s.168.503.448.671c.28.168.503.224.671.447.168.224.672.224.672.224s-.056-.335-.224-.671-.224-.894-.224-.894zm4.701 16.102c-.336-.28-.503-.448-.895-.895s-.504-.28-.896-.894c-.391-.615 0 .056-.671 0-.672-.056-.504-.057-.672-.224-.168-.167-.28 0-.224-.224.056-.223-.224-.671-.224-.671v-.67l-.895.67s-3.078 1.175-4.925.671c-1.847-.503-4.477-1.006-5.373-5.59-.895-4.585 3.358-6.262 3.358-6.262s.28-.447.224-.671c0 0-.896-.336-1.119-.671-.224-.335-.672-.112-.896-.671-.224-.559.168-.224.448-.223.28 0 .615-.057 1.343.223s.56.112.896 0c.335-.111.056-.224 0-.671-.056-.447 0 .056-.224-.447s0-.671 0-.671.28-.503.447-.894c.168-.391-.671-1.342-.671-1.342s-11.809 4.696-12.313 5.143c-.504.448 1.063 1.286 2.015 2.237.951.95 2.294 3.298 2.91 5.591.616 2.292-.112 4.975-.224 6.038-.112 1.062 1.399 1.117 6.492 2.012s16.79 2.237 16.79 2.237v-2.237c0-.782-.055-.615 0-1.118.057-.503-.223-.671-.223-.671l-.448-.447s-.392.224-.896.671c-.503.447-.671.671-.671.671s-.728.223-1.343.223c-.616.001-.784.056-1.12-.223zm32.909-77.154c-.672-2.906-1.791-4.473-3.806-4.696-2.014-.223-6.044 1.788-10.522 3.131-3.865 1.159-13.583 2.119-16.118 2.46-.401.054-.448 1.342-.448 1.342 1.119 6.038 5.821 10.733 7.388 10.734 1.567.001 2.686-3.803 2.686-6.038 0-2.236.448-5.368 2.911-6.262 2.462-.894 10.521 7.827 14.103 7.38 3.582-.446 4.478-5.144 3.806-8.051zm18.805 81.179l-1.791 2.46s.224.746.448 1.342c.224.596.746.298.224 1.118-.523.82-.97 1.119-1.12 1.566-.149.447-.223.894-.223.894s-.448-.074.447.224c.896.298 1.045.447 1.791.447s.896-.074 1.791 0c.896.074.746.075 1.567 0s.896.149 1.343-.224c.448-.373.299-.372.672-.671.373-.298.448-.67.448-.67zm9.179 1.118c-.448 0-.97-.223-1.344-.223h-1.119l-1.119.671 1.791 2.236.671.671s.299.373.448 0l.448-1.118s.224-.522.224-.895.447-1.341 0-1.342zm9.402 30.862a67.942 67.942 0 0 0-.224-1.566s.15-.67-.447-.67c-.597-.001-3.881.074-4.03-.448 0 0-.224.597-.224.895 0 .298-.149-.074.224.894.373.969.522 1.119.448 1.566-.075.447-.15.298 0 .894.149.596 0 .895 0 1.566v1.342c0 .67.224.894.224.894s.373.522.671 0c.299-.522.523-.82.896-1.342.373-.522.82-1.192 1.119-1.565.299-.373.597-.149.895-1.119.299-.969.523-.744.448-1.341zm25.521 11.181c.896 1.044 1.343 1.79 3.582 2.013 2.239.223 3.358.522 3.582-.224.224-.745 0-1.341 0-1.341s-5.074-4.92-6.044-5.368c0 0 .074 1.193-.448 2.013-.523.82-1.567 1.864-.672 2.907zm-.895-10.957c.373.372.671.82.895.894.224.074.97.075 1.343-.447.374-.523.821-.671 1.344-1.118.522-.448 1.044-1.118 1.343-1.342.298-.224.224-.224.895-.895.672-.671.821-1.118 1.344-1.565.522-.448 2.014-1.416 1.343-1.342-.672.074-.97.149-1.567.671-.597.521-1.12.895-1.567 1.342-.448.447-.672.82-1.12 1.118-.447.298-.074.671-.671.671-.597 0-3.582 1.118-3.582 1.118s-.373.522 0 .895zm10.746-8.275c-.299-.224-.374-.447-1.344-.671-.97-.224-.821-.223-2.015-.447-1.193-.224-.746-.074-1.791-.447-1.044-.373-.596-.82-1.79-.448-1.194.373-1.418.373-2.239.671-.821.298-2.91.522-2.91.895 0 .372.223 1.118.223 1.118s.597.149.896.447c.298.298.97.224.895.671-.074.447-.223.373-.671 1.118-.448.745-.896 1.119-.448 1.342.448.223 1.269.448 2.015 0 .746-.447.448-.223 1.791-1.118 1.343-.895 1.567-1.043 2.686-1.342 1.12-.298 1.642-.596 2.239-.671.597-.075 1.567-.149 2.015-.447.448-.299.746-.447.448-.671zm24.849-8.498l-3.134 3.354s-.746.373-.672.671c.075.298 0 .373.672.448.671.074 1.045-.075 1.343 0 .298.074 1.119 0 1.119 0s.224-.298.224-.671c0-.373-.298-.969 0-1.342.299-.373.448-1.118.448-1.118z" fill="#f6f6f6"/></svg>