<svg xmlns="http://www.w3.org/2000/svg" viewBox="0 0 488.06 213.11">
<defs>
<style>.cls-1{fill:none;stroke:#021415;stroke-miterlimit:10;stroke-width:3px;}</style></defs>
<title>svg.map</title>
<g id="圖層_2" data-name="圖層 2">
<g id="圖層_1-2" data-name="圖層 1">
<path class="cls-1" d="M363.94,67.52s32.33,18.33,19,30.67-6.34,24,44-10,48,65,13,55.66-46-31-89.67-5-41.33-34-42-41.33-15.33,9.33-24,5-14-21-19.67-24.67-17.66-3-34.66,31.67-19.67,34.33-21.67,52,23.67,15.33,25-11,15.33-37.67,16-17.67S155.6,244.16,155.6,147.19c0-14,9.67-27.67-16-34s-52.66-23-30-59.67,20.67-34.33-4.33-38-66.75-23.61-53-8.33c6,6.66-21.33,26,2,17s5.48,22-9.6,25.33-61.4-12-35.4,17.67,66,52.33,69.67,53.66,17.66,32.34-20,45.67,66.79-26,220.33-18.33c40,2,24,70.66,39.33,44.66s104,47.08,112,5.87,32.67-133.87,52.67-85.87-56.67-42.66-84-46S365.1,63,365.1,63"/></g>
</g></svg>