<svg xmlns="http://www.w3.org/2000/svg" width="336" height="169" viewBox="0 0 336 169"><title>Shape 4</title><path d="M1.15 8.398S20.2 19.522 25.37 22.555c5.17 3.033 6.43 4.172 10.34 6.32 3.92 2.148 8.96 3.792 11.61 6.067 2.65 2.275 6.69 3.667 9.08 4.804 2.4 1.137 4.17 1.77 4.8 2.781.63 1.01 4.29 4.55 4.29 5.308s.75 1.012.5 3.287-1.01 3.287-1.77 5.056c-.75 1.769 0 11.629 0 16.179 0 4.55-.88 11.883-1.26 18.455-.38 6.573.63 15.927 1.26 19.213.64 3.286 0 7.079-.5 8.848-.5 1.77 2.52 3.54 3.78 4.298 1.27.758 3.54 1.518 3.03 2.781-.5 1.264 0 2.402 1.77 3.034 1.76.631 7.32.506 8.83.758 1.51.253 3.91 3.793 6.56 4.045 2.65.252 8.83-2.148 12.61-1.77 3.79.379 8.46.886 10.6 1.012 2.15.125 3.66.379 4.79 1.264 1.14.884 2.02 3.792 8.08 4.803 6.05 1.011 9.84 1.012 11.6 2.022 1.77 1.011 2.65 2.276 5.81 2.023 3.15-.253 4.92-1.517 5.55-.759.63.758 2.52 3.035 3.53 3.287 1.01.252 2.65-.126 3.78-.506 1.14-.379 7.07.254 9.09.506 2.02.252 3.15-.632 5.3-.759 2.14-.126 4.16-.252 6.55-.252 1.001 0 2.07-.132 3.055-.268 1.277 2.259 6.71 11.677 10.325 14.93 1.761 1.585 3.383 2.924 4.927 3.996 1.291 1.878 2.669 2.682 3.393 2.072.026-.022.051-.045.076-.07.825.368 1.64.645 2.454.828.248.056.5.112.758.167.427 1.302 1.214 1.705 2.522 2.108 1.518.468 1.896.016 2.198-1.207.434.073.866.142 1.293.207.082.18.177.348.289.495.82 1.074 2.96 1.39 3.78.758.234-.18.433-.423.604-.725 4.253.157 19.57-.406 25.386-1.045 6.14-.674 16.99-1.769 19.93-2.275 2.95-.506 7.91-1.601 12.11-3.033 4.21-1.433 10.18-3.624 12.87-5.562 2.69-1.939 8.66-5.224 13.12-7.331 4.127-1.95 10.05-4.403 13.979-5.36l-.099.809c-.07.505 1.01 1.517 1.01 1.517l2.77-.253s-.06 1.264.76 1.264c.82 0 6.81-.758 6.81-.758s0 2.654.51 3.539c.5.885 2.58.632 4.03.253 1.45-.38 1.64-1.138 2.02-2.528.38-1.391.13-1.896 1.51-2.023 1.39-.127 3.28 1.328 4.55 1.77 1.26.442 3.15.316 3.53-.759.38-1.074.88-3.728.25-10.112-.63-6.383-2.77-9.101-2.77-9.101s-1.58-.126-2.53.253c-.94.379-1.76 1.011-1.76 1.011s-.32-3.728 0-6.067c.31-2.339.56-3.792.25-4.298-.32-.505-.57-1.011-.51-1.516.07-.506.19-.569 0-1.012-.19-.442-.75-1.264-.75-1.264s-.7-.884-4.04-2.528c-3.34-1.643-5.3-2.781-5.3-2.781s.95-2.338-2.02-4.55c-2.96-2.212-5.8-4.298-5.8-4.298s-2.02-.126-2.77-.253c-.76-.126-1.01-1.011-1.01-1.011s.63-1.832-4.04-4.55-5.99-2.654-7.57-5.309c-1.58-2.655-1.01-2.591-5.05-4.298-4.03-1.706-11.22-5.056-12.86-5.562-1.64-.505-4.99-1.453-6.56-3.286-1.58-1.833-2.72-3.918-3.28-5.056-.57-1.138-.19-2.086-1.77-2.528-1.58-.443-2.4-1.896-4.04-1.77-1.64.126-1.26.316-2.52.506-1.26.189-2.4.948-3.03 1.264-.63.316-.75.316-1.76.505-1.01.19-1.77.696-2.27.759-.51.063-1.26-.506-1.26-.506s-.95-4.929-2.53-7.078c-1.57-2.149-3.21-4.108-5.04-5.309-1.83-1.201-7.83-4.551-7.83-4.551s2.4-.568 2.78-2.022c.38-1.454.38-2.338-.25-3.287-.63-.948-2.53-1.769-2.53-1.769l-2.27-.253-1.01-.758s-.88 0-.75-.253c.12-.253.5-.569.5-.759v-.505s-.25-.632-.5-.759c-.25-.126-.76-.253-.76-.253s-.5-.315 0-.505c.51-.19.63-.695 1.01-.759.38-.063.82-.189 1.51-.252.7-.064 1.27-.253 1.27-.253s1.45-1.011.75-3.792c-.69-2.781-3.53-1.517-3.53-1.517l-4.29 1.011-5.3 1.011s-3.66-5.624-8.32-7.584c-4.67-1.959-9.4-2.97-14.38-1.517-4.99 1.454-16.15 5.562-16.15 5.562s-3.66-2.591-12.62-1.264c-8.95 1.327-44.91 15.674-44.91 15.674s-2.01.253-3.28-2.275c-1.26-2.529-.75-2.086-1.76-3.792-1.01-1.707-1.07-2.149-1.26-2.528-.19-.38-.82-.253-.26-1.265.57-1.011.7-.821 1.01-1.769.32-.948.63-1.074.26-2.022-.38-.949-.13-1.58-.51-2.023-.38-.443-1.01-4.929-4.54-6.32-3.53-1.391-14.95-4.677-16.9-7.079-1.96-2.402-5.68-7.52-10.85-10.87C82.26 3.784 70.53.055 70.53.055s-1.51-.442-4.54 1.264c-3.03 1.706-8.96 4.298-11.35 4.804-2.4.505-4.1 3.855-6.81 6.067-2.72 2.212-6.31 3.603-6.56 4.298-.26.695 2.71 3.223 4.79 4.297 2.08 1.074 3.85 2.212 3.03 2.528-.82.316-13.25-3.096-18.93-5.561C24.49 15.286 5.5 8.651 3.42 8.398c-2.08-.253-2.77-.569-2.27 0zm180.14 135.756c1.14.252 2.53 1.644 4.54 2.528 2.02.884 3.28 1.011 3.28 1.011s1.52 3.224 2.02 5.815c.322 1.637.517 4.233.95 6.433-3.544-2.84-7.132-6.533-9.02-10.225-1.292-2.52-2.002-4.334-2.386-5.613.238-.002.446.013.616.051zm16.15 16.432c-.19-2.338-.57-5.372 0-5.561.57-.19.57.316 1.01 2.78.412 2.31.878 4.733 1.198 6.9a7.789 7.789 0 0 1-.188-.074 18.905 18.905 0 0 1-2.042-1.015c.117-.828.117-1.866.022-3.03zm8.07 4.045s-.015.559.074 1.252c-.182-.02-.362-.04-.54-.062.241-.77.466-1.19.466-1.19zm6.06 0c.31-2.022.5-3.033.5-3.033l.26-2.023s.37-1.011.5-.253c.13.758.82 3.161 1.51 3.793.7.631 3.16 2.085 4.29.505 1.14-1.58 1.96-5.372 1.26-8.09-.69-2.718-.88-4.108-2.27-5.561-1.38-1.454-2.39-4.045-5.29-5.309-2.91-1.265-4.99-3.097-5.56-3.287-.56-.19-1-.442-1.26-1.264-.25-.822.13-1.264-.5-1.769-.63-.506-.88-1.011-1.26-1.517s-1.52-1.201-1.52-1.77-.19-.695 0-1.264c.19-.569.19-1.264 1.01-1.517.82-.253 1.26-.316 1.52-.506.25-.189.5-.505.5-1.011 0-.505-.06-.948 0-1.264.06-.316.88-.695 1.51-.758.64-.063.95-.19 1.52-.758.57-.569 1.01-1.011 1.26-1.264l.5-.506s2.15 3.666 6.82 3.539c4.66-.126 5.67-.948 6.05-1.264.38-.316.25-.126.51-.758.25-.633.5-.442.5-2.023 0-1.58.19-1.895-.25-2.781-.44-.885-.63-.695-1.01-1.516-.38-.822-2.52-.632-.76-1.77 1.77-1.138 1.77-1.074 2.27-1.264.51-.19.95-.379 1.27-1.011.31-.632.37-1.833.5-2.023.13-.189.5-1.011.5-1.011s-1.19-.632-1-1.011c.18-.38.56-1.011.75-1.264.19-.253.63-1.138 1.26-1.517.63-.38.76-.821 1.52-1.011.75-.19.94-.316 1.01.505.06.822 1.01.569 1.26 1.012.25.442.5 1.011.5 1.011v1.011c0 .632.51 1.517.51 1.517v5.814s-.44.317.5.759c.95.442 1.2.695 1.26 1.011.07.316.44.379 0 .758s-.82.19-1.26.253c-.44.063-.31-.695-.76 0-.44.695-.44.38-.25 1.011.19.632-.44.506.76.759 1.2.252 1.45.506 2.27-.253.82-.759 2.14.127 1.26-2.022-.88-2.15-1.26-2.529-1.26-2.529s-.5-.505-.76-1.011c-.25-.505-.38-.505-.5-1.264-.13-.758.38-3.665.25-4.044-.13-.38-.44-.253.25-.759.7-.506.76-.632 1.01-1.011.25-.38.7-.632.51-1.264-.19-.633 0-1.517 0-1.517l1.51 1.264s.57.632.51 1.011c-.07.379.44 1.454-.26 2.276-.69.821-1.38 1.833-1.01 2.275.38.442 1.01 1.074 1.27 1.769.25.695.25.316.25 1.264s0 1.265.25 1.77c.25.505.32.759 1.01 1.011.69.253 1.01.696 1.51.253.51-.443.32-.632.51-.758.19-.127.69-2.023.75-3.034.07-1.011.32-1.011.26-2.022-.07-1.012 0-1.643-.26-2.023-.25-.379-.56-.758-.5-1.011.06-.253.38-1.011.5-1.264.13-.253 1.01-1.264 1.01-1.264s2.65.253 4.29-2.023c1.64-2.275 2.08-3.728 2.02-4.803-.06-1.075-.25-2.528-.25-2.528s-.38-.884-.51-1.011c-.12-.127.07-.379.26-.506.19-.126 1.57 0 2.52-.505.95-.506 2.02-.506 2.02-.506s.12.19.76.506c.63.315 1.82.379 2.01.505.19.126 1.01-.126 1.52 0 .5.126 1.01.127 1.51 0 .51-.126 1.2-.063 1.51-.253.32-.19.82-.315 1.27-.505.44-.19 1.26-.506 1.51-.506s.19-.189 1.01.253c.82.442.63.19 1.26.506.63.315 1.01.505 1.51.758.51.252.7.316 1.01.758.32.443.13.822.76.759.63-.064 1.89-.569 2.02-.759.13-.189.57-.442.76-.505.19-.064.56-.253 1.01 0 .44.252 2.83 1.264 3.53 1.77.69.505.5.442 1.76 1.011 1.27.568 1.45.442 2.27 1.011.82.569 1.33.632 1.77.758.44.127.82-.126 1.77.253.94.379 1.13.19 1.76.758.63.569 1.01.317 1.77 1.012.76.695.82.758 1.26 1.011.44.252.82.063.76.758-.07.695-.44.759 0 1.517.44.758.31.253.75 1.011.45.759.76.886.76 1.517 0 .632-.13 1.833 1.51 2.023 1.64.189 1.77.19 2.28.253.5.063 1.13 0 1.51-.253.38-.253.57-.632.76-.506.19.126.12.506 1.01.506a4.47 4.47 0 0 0 1.51-.253h1.26l4.04 3.539 2.02 1.011s.19.001.5.253c.32.253.76.758.76.758s1.45.822 2.27 2.781c.82 1.959.44 4.488 1.76 6.826 1.33 2.338 1.27 3.539 1.27 3.539l-2.78 1.012s-.82.632-.76 1.011c.07.379.51 2.275.51 2.275s-3.03 0-2.78 2.023c.16 1.245.411 1.915.58 2.246-2.673.537-9.288 2.068-13.95 4.832-5.97 3.539-10.85 5.899-14.38 7.837-3.53 1.938-11.19 6.658-23.97 8.343-12.78 1.684-32.04 3.455-36.08 3.539-1.748.036-4.96.041-8.388-.108a21.76 21.76 0 0 0 .318-1.662zM96.27 38.987c5.42 2.023 6.81 4.297 7.06 5.056.25.759.63 1.011 1.26 1.77.63.759.26.631.76 1.011.5.38.76.885 1.01 1.77s.13 1.39.5 2.528c.38 1.138.38 1.137 1.01 2.275s.38 1.137.76 1.77c.38.632 1.51 7.837 1.51 7.837s1.01 5.94 0 8.089c-1.01 2.15-4.41 5.688-4.03 7.837.38 2.15 7.57 4.804 7.57 4.804s.75 1.516 1.76 2.528.76 5.056.76 5.056-.13.884-.76 1.517c-.63.632-.5.884-1.01 1.011-.5.127-1.51 1.011-2.52 1.517s-2.27.505-4.54.505c-2.27.001-4.54.885-9.59 1.77s-6.94-.127-7.57-.759l.76-1.769c.38-.884-.38-9.986-.76-12.388-.38-2.401-.38-8.09-2.02-11.123-1.64-3.033-.88-5.689-1.01-8.343-.12-2.653-.12-2.275-.5-4.297s-.13-1.517-.25-2.781c-.13-1.264-.25-2.023-.51-2.781-.25-.758-.38-.885-.75-1.77-.38-.884-.26-.506-.26-2.022v-3.539c0-.505.51-.633 1.01-1.011.51-.379.51-.38 1.01-1.012.51-.631.89-.632.76-1.264-.13-.631-.51-.632-.76-1.769s2.52-4.045 2.52-4.045 1.39-.001 6.82 2.022zM236.8 90.56l3.03-7.332s.25-1.432 2.01-2.022c1.77-.591 7.99-3.034 9.59-3.287 1.6-.253 3.87-1.432 4.54-.505.68.926-1.01 3.876-1.76 5.561-.76 1.685-1.85 3.203-3.28 3.54-1.43.336-2.44.337-2.53-1.012-.08-1.348.51-2.612-.5-3.286-1.01-.675-2.02-.59-2.27 0-.25.589-2.52 5.056-3.79 6.573-1.26 1.516-6.05 4.298-5.04 1.77zm-3.03 18.454c.34 0 .51.59.76.759.25.168-.04.505-.25.758s-.09.505-.51 1.264c-.42.759-.5.084-.76-.253-.25-.337-.25-.084-.5-.505-.25-.422-.67-.464-.76-.759-.08-.295.51-1.264.51-1.264h1.51z" fill="#f6f6f6"/></svg>