<svg xmlns="http://www.w3.org/2000/svg" width="276" height="302" viewBox="0 0 276 302"><title>Shape 11</title><path d="M272.227 75.11c-6.721.46-16.223-1.24-21.708-2.4-5.485-1.16-10.815-2.87-16.918 4.17s-10.583 15.24-14.987 24.53c-4.403 9.28-3.321 9.82-5.176 11.6-1.853 1.78-11.819 6.65-13.595 13.38 0 0-1.004-9.05-1.159-16.32-.155-7.27-3.167-7.04-4.172-7.27-1.004-.24-3.012-.16-3.09 5.64-.077 5.81.386 15.09-.926 8.2-1.314-6.88-2.009-13.22-3.709-16.4-1.699-3.17-2.858-3.4-4.789-2.78-1.931.62-3.244 1.78-2.55 4.95.696 3.17 1.855 12.84-.308 4.1s-3.863-9.98-5.949-9.9c-2.086.08-3.707 4.25-3.631 5.26l.009.08c-2.416-2.18-5.429-3.68-8.169-4.7 1.733-3.33 3.666-6.26 5.689-7.99 6.257-5.34 21.321-21.97 32.136-43.08 10.815-21.12 10.737-25.3 6.411-28.16-4.325-2.86-11.587-6.27-17.612-12.15-6.026-5.87-9.811-8.66-14.446-2.01-4.635 6.66-12.594 18.18-20.55 31.64-7.955 13.46-12.436 21.81-13.672 35.12-1.236 13.3-2.472 17.17-2.472 17.17s-2.781-.23-3.245-.93c-.463-.69-1.545-2.24-.463-4.1 1.082-1.85 3.321-5.72 1.236-8.35-2.086-2.63-8.189-3.64-8.807-1.32-.617 2.32-1.931 4.64-2.162 4.57-.233-.08.54 1.24-2.473 1.62-2.96.38-17.998-5.58-28.633 8.14-.211.01-.43.02-.658.04-1.787-2.54-4.303-5.88-7.227-9.14-7.937-8.85-14.731-12.47-20.191-10.75-5.178 1.63-8.73 7.88-10.688 18.9-.936-1.11-2.051-1.15-2.051-1.15s1.236-4.57-.232-5.34c-1.468-.77-3.09-1.47-4.866.23-1.777 1.7-6.567 6.11-4.635 2.32 1.931-3.79-.078-6.34-1.932-6.65-1.854-.31-4.712 3.33-6.566 8.58-1.854 5.27-6.258 12.61-4.635 6.66 1.622-5.96 1.381-9.13-.352-9.67-1.734-.54-4.36.38-4.901 4.1-.541 3.71-2.24 10.83-4.017 14.23-1.776 3.4-4.48 7.58-4.558 10.6-.077 3.01 1.236 6.5-2.317 11.83-3.554 5.34-10.429 9.83-12.051 19.57-1.623 9.75 1.081 15.09 9.27 16.02 8.188.92 28.814-1.55 35.149-2.48 1.136-.17 2.434-.29 3.79-.35 1.281 5.77 3.508 9.53 6.679 11.22.952.51 1.917.8 2.867.93-.759.93-1.755 1.46-3.217 1.43-3.862-.08-8.266-3.31-10.583-1.46 0 0-9.965 6.56-9.656 11.59.309 5.03 1.931 4.25.463 5.65-1.468 1.39-2.395 2.16-1.854 4.72.541 2.55 2.935.92 4.094.38 1.159-.54 3.09-2.4 5.099-.69 2.008 1.7 4.171 5.87 5.408 6.11 1.236.23 3.708 2.24 4.249 3.63.54 1.4 1.313 2.79-.851 5.65-2.162 2.86-4.016 3.63-4.635 4.79-.618 1.17-.772 2.64-1.235 3.87-.464 1.24-2.55 2.32-2.086 4.8.464 2.47 3.554 4.48 4.248 2.78.696-1.7 1.159-3.32 2.318-4.87 1.159-1.55 1.313-7.35 3.476-6.19 2.163 1.16 2.859 2.48 5.253 1.55 2.395-.93 3.631-1.38 5.176-.68 0 0 3.09 1.92 4.867 5.47 1.777 3.56 4.558 9.06 7.03 8.75 2.472-.31 3.476-1.09 2.858-2.94-.618-1.86-.386-1.4 1.622.38 2.009 1.78 4.481 5.19 8.189 6.96 3.708 1.78 10.892 5.73 10.969 6.97.078 1.24-.772 2.16 2.704 2.24 3.476.08 10.12-.7 10.12-.7l-6.026 12.07s-.964-.15-2.027 1.86c-1.063 2.01-4.385 10.67-5.93 10.75-1.544.08-7.415 2.4-8.111 8.2-.695 5.8 0 9.59 1.237 10.9 1.235 1.32 3.09 1.63 4.635 0 1.545-1.62 6.451-1.46 8.169-4.94 1.719-3.49 1.873-4.88 1.564-6.97-.309-2.08-.696-2.39.155-5.26.849-2.86 3.707-11.29 3.553-12.22-.155-.93.154-2.09 1.39-4.64 1.237-2.55 3.323-9.2 5.021-9.82 1.7-.62 2.859-1.24 5.099.85s7.957 4.1 6.953 19.95c-1.004 15.86-.927 34.19 1.777 39.76 2.703 5.57 7.184 5.57 5.639 0s-1.159-18.64-1.081-26.68c.076-8.05.694-19.65-1.623-24.37-2.318-4.72-8.729-11.53-7.416-10.44 1.313 1.08 5.716 3.63 7.03 1.39 1.313-2.24 4.789-1.39 6.566-1.47 1.777-.08 6.262 2.4 7.805 2.79 1.542.38 3.474 1.08 3.165 2.32-.31 1.23.154 6.18 2.78 5.26 2.627-.93 6.026-3.79 5.872-5.26-.155-1.47.618-1.47.618-1.47s-.14-.08 4.032-.7c0 0 10.954.31 21.074-10.06 10.12-10.36 15.296-25.6 17.69-32.17 2.395-6.58 6.103-19.65 7.185-20.5 1.081-.85 5.407-2.32 5.33-8.51-.077-6.19-1.159-10.21.386-14 1.545-3.79 1.7-8.74 3.785-9.13 2.086-.39 16.3-4.33 20.78-9.05 4.481-4.72 3.631-7.97-1.39-3.87s-10.197 5.65-13.287 6.73c-3.09 1.08-5.716 2.48-3.863-.69 1.855-3.18 5.254-8.75 12.824-11.22 7.571-2.48 21.012-7.58 29.973-23.67 8.961-16.09 15.373-28.39 8.653-27.92zM45.574 215.19l2.009 2.48s-4.327 3.48-2.009-2.48zm7.732-24.29c-1.398.08-3.097.23-2.865-1.58.232-1.82.849-2.21 2.471-1.59 0 0 1.792 3.1.394 3.17zm2.851-11.37c-.155 1.63-.383 5.04-.618 5.11-1.622.46-2.627-1.24-2.086-3.02.541-1.78 2.859-3.71 2.704-2.09zm35.999 99.25s1.854.3 2.008 1.31c.155 1-2.086 1.08-2.008-1.31zM65.001 69.93c7.295-2.29 17.686 9.31 23.827 17.77-4.242.46-9.977 1.57-15.865 4.16-6.745 2.97-12.259 7.28-16.386 12.81a39.981 39.981 0 0 0-2.291 3.45c.498-28.3 5.804-36.64 10.715-38.19zm-32.019 60.48c10.506-5.41 12.36-9.67 13.055-11.52.695-1.86-2.858-3.25-3.94-2.87-1.081.39-7.415 1.01-2.626-3.01 3.373-2.83 9.27-8.51 12.682-14.02-.272 4.27-.4 8.96-.386 14.1-1.773 4.15-2.99 8.76-3.641 13.79-.605.18-1.115.31-1.471.36-2.008.31-24.179 8.59-13.673 3.17zm18.893-10.02c.043 1.69.099 3.41.17 5.18-.44.16-.88.32-1.31.47.289-1.96.672-3.84 1.14-5.65zm4.638 43.62c-1.971-1.06-4.046-3.57-5.348-9.08 5.514.07 10.96 1.29 9.859 4.88-.567 1.84-1.009 3.52-1.533 4.9-.992.01-2.007-.18-2.978-.7zm27.3-55.41s-1.854 2.01-4.79 2.78c-2.936.78-7.571.62-10.12 2.71-2.549 2.09-9.656 8.66-11.51 9.44-.579.24-1.648.66-2.907 1.14-.148-3.99-.225-7.71-.237-11.16 3.887-8.8 10.446-15.28 19.629-19.35 6.245-2.76 12.423-3.77 16.579-4.12-9.117 13.32-6.644 18.56-6.644 18.56zm42.881 11.49c-2.65 2.55-6.755 3.6-8.244 2.53-1.488-1.07-3.398-9.37-3.725-11.03-.327-1.66-1.962-4.46-3.873-4.51-1.91-.05-3.725.79-5.014 2.84-1.288 2.05-5.14 7.88-5.14 7.88-5.142 5.95-10.122-5.39-11.189-11.04-1.065-5.65 2.207-7.75 5.595-8.22 3.389-.48 16.341.91 24.669 2.91 8.327 1.99 10.395 3.73 11.155 6.79.761 3.07-1.585 9.31-4.234 11.85zm41.716-15.83c-2.533-.32-5.404-1.02-4.102 5.42.993 4.92 3.091 9.21 4.322 11.71-.514.87-1.086 1.76-1.726 2.67-2.098-7.04-5.667-11.65-8.811-14.53-.482-.44-.964-.85-1.441-1.24 1-2.74 2.234-5.84 3.632-8.79 2.773 1 5.859 2.52 8.126 4.76zm-11.904 137.69c-1.314 2.4-5.022 4.03-4.558.31l4.558-3.32s1.313.62 0 3.01zm1.931-115.33c-2.627-1-5.021-1.39-5.408-2.47 0 0-.077-4.26 1.159-8.44.299-1.01.843-2.77 1.585-4.93.216.19.433.38.651.58 4.177 3.82 7.076 8.99 8.593 15.2-.602.75-1.244 1.51-1.926 2.29-1.958-1.01-3.7-1.86-4.654-2.23zm7.211 3.05c.03.18.057.37.084.55-.128-.07-.256-.13-.385-.2.1-.12.202-.23.301-.35zm6.694 3.99c-.852-.41-2.286-1.17-3.934-2.03a44.509 44.509 0 0 0-.719-4.49 52.077 52.077 0 0 0 2.161-3.05c1.286 2.93 4.886 10.74 2.492 9.57z" fill="#fff"/></svg>